<?xml version="1.0" encoding="UTF-8" standalone="no"?>
<!-- Created with Inkscape (http://www.inkscape.org/) -->

<svg
   xmlns:dc="http://purl.org/dc/elements/1.1/"
   xmlns:cc="http://creativecommons.org/ns#"
   xmlns:rdf="http://www.w3.org/1999/02/22-rdf-syntax-ns#"
   xmlns:svg="http://www.w3.org/2000/svg"
   xmlns="http://www.w3.org/2000/svg"
   xmlns:sodipodi="http://sodipodi.sourceforge.net/DTD/sodipodi-0.dtd"
   xmlns:inkscape="http://www.inkscape.org/namespaces/inkscape"
   width="1920px"
   height="1080px"
   viewBox="0 0 1920 1080"
   version="1.1"
   id="SVGRoot"
   inkscape:version="0.92.1 r15371"
   sodipodi:docname="Fellucid_Engine_Logo.svg">
  <sodipodi:namedview
     id="base"
     pagecolor="#ffffff"
     bordercolor="#666666"
     borderopacity="1.0"
     inkscape:pageopacity="0.0"
     inkscape:pageshadow="2"
     inkscape:zoom="0.58"
     inkscape:cx="960"
     inkscape:cy="540"
     inkscape:document-units="px"
     inkscape:current-layer="layer1"
     showgrid="false"
     inkscape:window-width="1920"
     inkscape:window-height="1057"
     inkscape:window-x="-8"
     inkscape:window-y="-8"
     inkscape:window-maximized="1" />
  <defs
     id="defs18" />
  <metadata
     id="metadata21">
    <rdf:RDF>
      <cc:Work
         rdf:about="">
        <dc:format>image/svg+xml</dc:format>
        <dc:type
           rdf:resource="http://purl.org/dc/dcmitype/StillImage" />
        <dc:title></dc:title>
      </cc:Work>
    </rdf:RDF>
  </metadata>
  <g
     id="layer1"
     inkscape:groupmode="layer"
     inkscape:label="Layer 1">
    <path
       style="fill:#186383;fill-opacity:0.64444448;stroke:#000000;stroke-width:0;stroke-linecap:butt;stroke-linejoin:miter;stroke-miterlimit:4;stroke-dasharray:none;stroke-opacity:1"
       d="m 267.86207,538.06897 43.10345,255.17241 86.20689,-8.62069 -48.27586,-106.89655 101.72414,-17.24138 -15.51724,-51.72414 -81.03449,34.48276 -34.48275,-79.31035 87.93103,-22.41379 -12.06896,-51.72414 z"
       id="path34"
       inkscape:connector-curvature="0" />
    <path
       style="fill:#176483;fill-opacity:0.64313725;stroke:#000000;stroke-width:0;stroke-linecap:butt;stroke-linejoin:miter;stroke-miterlimit:4;stroke-dasharray:none;stroke-opacity:1"
       d="M 459.24138,250.13793 586.82759,217.37931 579.93104,276 l -75.86207,29.31034 -1.72414,60.34483 75.86207,-25.86207 -13.7931,55.17242 -55.17242,15.51724 -8.62069,70.68965 82.75862,-10.34482 -44.82758,51.72413 -101.72414,-10.34482 z"
       id="path5977"
       inkscape:connector-curvature="0" />
    <path
       style="fill:#176483;fill-opacity:0.64313725;stroke:#000000;stroke-width:0;stroke-linecap:butt;stroke-linejoin:miter;stroke-miterlimit:4;stroke-dasharray:none;stroke-opacity:1"
       d="m 621.31034,167.37932 5.17241,268.96551 153.44828,-24.13793 5.17241,-48.27586 -110.34483,20.68965 20.68966,-215.51724 z"
       id="path5979"
       inkscape:connector-curvature="0" />
    <path
       style="fill:#176483;fill-opacity:0.64313725;stroke:#000000;stroke-width:0;stroke-linecap:butt;stroke-linejoin:miter;stroke-miterlimit:4;stroke-dasharray:none;stroke-opacity:1"
       d="m 825.62071,115.65519 5.1724,268.9655 153.44829,-24.13793 5.1724,-48.27586 -110.34479,20.68965 20.6896,-215.51723 z"
       id="path5979-2"
       inkscape:connector-curvature="0" />
    <path
       style="fill:#166483;fill-opacity:0.64313725;stroke:#000000;stroke-width:0;stroke-linecap:butt;stroke-linejoin:miter;stroke-miterlimit:4;stroke-dasharray:none;stroke-opacity:1"
       d="m 1035.1035,136.34483 -1.7241,232.75862 175.862,1.72414 15.5173,-236.2069 -56.8966,1.72413 -6.8965,174.13794 -72.4138,-5.17241 L 1092,143.24138 Z"
       id="path5996"
       inkscape:connector-curvature="0" />
    <path
       style="fill:#176483;fill-opacity:0.64313725;stroke:#000000;stroke-width:0;stroke-linecap:butt;stroke-linejoin:miter;stroke-miterlimit:4;stroke-dasharray:none;stroke-opacity:1"
       d="m 1281.6551,210.48276 129.3104,-25.86207 -5.1724,70.68966 -98.2759,13.7931 -5.1724,120.68966 h 115.5172 l -20.6896,48.27586 -151.7242,-10.34483 z"
       id="path5998"
       inkscape:connector-curvature="0" />
    <path
       style="fill:#176483;fill-opacity:0.64313725;stroke:#000000;stroke-width:0;stroke-linecap:butt;stroke-linejoin:miter;stroke-miterlimit:4;stroke-dasharray:none;stroke-opacity:1"
       d="m 1456.5516,271.37931 -13.7931,241.37931 74.138,-17.24138 -10.3449,-224.13793 z"
       id="path6015"
       inkscape:connector-curvature="0" />
    <g
       id="g6099"
       transform="translate(-126.2069,344.82758)">
      <path
         inkscape:connector-curvature="0"
         id="path6017"
         d="m 1610.3448,200.68966 -22.4138,232.75862 141.3793,-15.51725 41.3794,-131.03448 -72.4138,-96.55172 z"
         style="fill:#176483;fill-opacity:0.64313725;stroke:#000000;stroke-width:0;stroke-linecap:butt;stroke-linejoin:miter;stroke-miterlimit:4;stroke-dasharray:none;stroke-opacity:1" />
      <path
         inkscape:connector-curvature="0"
         id="path6017-1"
         d="m 1634.4203,237.04331 -13.11,158.4739 82.6935,-10.5649 24.2031,-89.215 -42.3552,-65.7373 z"
         style="fill:#ffffff;fill-opacity:0.96666715;stroke:#000000;stroke-width:0;stroke-linecap:butt;stroke-linejoin:miter;stroke-miterlimit:4;stroke-dasharray:none;stroke-opacity:1" />
    </g>
    <g
       id="g6111"
       transform="matrix(0.74989646,0,0,0.82687928,354.3466,40.44615)">
      <path
         inkscape:connector-curvature="0"
         id="path5977-2"
         d="m 289.34483,605 127.5862,-32.75862 -6.89655,58.62069 -75.86206,29.31034 -1.72414,60.34483 75.86206,-25.86207 -13.7931,55.17242 -55.17241,15.51724 -8.62069,70.68965 82.75861,-10.34482 -44.82758,51.72413 -101.72414,-10.34482 z"
         style="fill:#176483;fill-opacity:0.64313725;stroke:#000000;stroke-width:0;stroke-linecap:butt;stroke-linejoin:miter;stroke-miterlimit:4;stroke-dasharray:none;stroke-opacity:1" />
      <path
         inkscape:connector-curvature="0"
         id="path6049"
         d="m 470.82759,679.65517 -34.48276,177.58621 68.96551,-5.17241 10.34483,-101.72414 h 50 l 6.89655,103.44827 63.79311,-17.24138 -17.24138,-158.62069 z"
         style="fill:#166483;fill-opacity:0.64313725;stroke:#000000;stroke-width:0;stroke-linecap:butt;stroke-linejoin:miter;stroke-miterlimit:4;stroke-dasharray:none;stroke-opacity:1" />
      <g
         transform="translate(-52)"
         id="g6091">
        <path
           style="fill:#166483;fill-opacity:0.64313725;stroke:#000000;stroke-width:0;stroke-linecap:butt;stroke-linejoin:miter;stroke-miterlimit:4;stroke-dasharray:none;stroke-opacity:1"
           d="m 879.31034,655.86207 -141.37931,22.41379 -17.24137,131.03448 h 101.72413 l -34.48276,89.65518 -82.75862,-3.44828 v 55.17242 L 850,933.44828 Z"
           id="path6051"
           inkscape:connector-curvature="0" />
        <path
           style="fill:#ffffff;stroke:#000000;stroke-width:0;stroke-linecap:butt;stroke-linejoin:miter;stroke-miterlimit:4;stroke-dasharray:none;stroke-opacity:1"
           d="m 758.6684,713.95886 -7.42706,68.17907 78.72679,-15.30551 17.82497,-64.00483 z"
           id="path6053"
           inkscape:connector-curvature="0" />
      </g>
      <path
         inkscape:connector-curvature="0"
         id="path6015-2"
         d="m 866.10987,666.13793 -11.8685,158.62069 63.7932,-11.33005 -8.9015,-147.29064 z"
         style="fill:#176483;fill-opacity:0.64313725;stroke:#000000;stroke-width:0;stroke-linecap:butt;stroke-linejoin:miter;stroke-miterlimit:4;stroke-dasharray:none;stroke-opacity:1" />
      <path
         inkscape:connector-curvature="0"
         id="path6049-0"
         d="m 977.931,661.10345 -34.4827,177.58621 68.9655,-5.17241 10.3448,-101.72414 h 50 l 6.8966,103.44827 L 1143.4483,818 1126.2069,659.37931 Z"
         style="fill:#166483;fill-opacity:0.64313725;stroke:#000000;stroke-width:0;stroke-linecap:butt;stroke-linejoin:miter;stroke-miterlimit:4;stroke-dasharray:none;stroke-opacity:1" />
      <g
         transform="translate(-68)"
         id="g6095">
        <path
           style="fill:#166483;fill-opacity:0.64313725;stroke:#000000;stroke-width:0;stroke-linecap:butt;stroke-linejoin:miter;stroke-miterlimit:4;stroke-dasharray:none;stroke-opacity:1"
           d="m 1300,745.51724 106.8966,-13.7931 10.3448,-70.68966 -50,-29.31034 -110.3448,27.5862 -18.9656,79.31035 20.6897,81.03448 132.7586,-6.89655 20.6897,-36.2069 z"
           id="path6085"
           inkscape:connector-curvature="0" />
        <path
           style="fill:#ffffff;stroke:#000000;stroke-width:0;stroke-linecap:butt;stroke-linejoin:miter;stroke-miterlimit:4;stroke-dasharray:none;stroke-opacity:1"
           d="m 1270.8966,681.31034 8.6206,44.82758 91.3794,-13.7931 v -53.44828 z"
           id="path6087"
           inkscape:connector-curvature="0" />
      </g>
    </g>
  </g>
</svg>
